<svg xmlns="http://www.w3.org/2000/svg" width="32" height="32" viewBox="0 0 32 32">
  <path d="M16 2C9.373 2 4 7.373 4 14c0 4.127 2.073 7.783 5.25 10.02C9.096 24.01 9 23.508 9 23c0-0.75 0.75-0.75 0.75-0.75h12.5c0 0 0.75 0 0.75 0.75 0 0.508-0.096 1.01-0.25 1.52C25.927 21.783 28 18.127 28 14c0-6.627-5.373-12-12-12z"/>
  <circle cx="12" cy="13" r="1.25"/>
  <circle cx="20" cy="13" r="1.25"/>
  <path d="M8.5 14c0.828 0 1.5-0.895 1.5-2s-0.672-2-1.5-2-1.5 0.895-1.5 2 0.672 2 1.5 2z"/>
  <path d="M23.5 14c0.828 0 1.5-0.895 1.5-2s-0.672-2-1.5-2-1.5 0.895-1.5 2 0.672 2 1.5 2z"/>
  <path d="M16 16c-1.5 0-2.5 1.5-2.5 1.5S14.5 19 16 19s2.5-1.5 2.5-1.5S17.5 16 16 16z"/>
</svg> 